<svg id="Layer_1" xmlns="http://www.w3.org/2000/svg" viewBox="0 0 269 511"><style>.st0{opacity:0.3;fill:#ffffff;} .st1{opacity:0.5;fill:#ffffff;}</style><path class="st0" d="M266.1 346.3c-1.8-1.3-4.1-1.9-6.7-1.9-3 0-6.2.9-8.1 2.4-2.2 1.7-4.4 3.9-6.5 5.9-1.9 1.9-3.9 3.9-5.9 5.5-7.3 5.8-15.9 10.8-27.1 15.7-4.6 2-9.1 4.4-13.5 7.3-2.5 1.6-4.8 3.3-7 5-2.2 1.6-4.2 3.2-6.3 4.5-4.6 3-10.6 5.5-12.3 6.2-3.6 1.4-8.4 3-11.2 3.4-1.1.1-2.2.2-3.3.2-3.4 0-5.9-.8-8.3-1.6-1.7-.6-3.4-1.1-5.5-1.4-.6-.1-1.3-.1-1.9-.1-7.8 0-11 7.5-12.9 11.9l-.3.7c-4.2 10-6 20.8-5.4 33.1.4 8.6 0 12.9-3.7 17.3-1.8 2.2-3.8 4.1-5.7 5.9-4.4 4.1-8.1 7.7-8.7 14-1.2 6.9 1.3 15.1 6.5 21.3 4.9 5.9 11.7 9.3 18.5 9.3 2.5 0 5.1-.5 7.6-1.4 7.7-2.8 20.1-16.2 24.4-24.8.6-1.2 1.1-2.3 1.7-3.5 3.4-7 6.4-13.1 12-17.9 4.7-4 8.8-6.7 13.9-8.8 4.7-1.9 10.2-2.7 16-3.4 7.8-1 15.8-2.1 21.8-6.3 9.4-7.8 21.1-18.2 27.3-28.6 2.9-4.9 6.6-13.2 8.7-18.9 1.9-5 .8-12.8-.2-20.3-.3-1.9-.5-4-.7-5.9.2-.9.3-1.8.4-2.8.3-2.1.6-4.2 1.6-6.7.2-.6.6-1.3 1-2.1 2.1-3.7 5-9.6-.2-13.2z"/><path class="st1" d="M258.2 353.3c-1.7-1.2-3.8-1.8-6.1-1.8-2.7 0-5.7.9-7.5 2.2-2 1.5-4 3.5-6 5.4-1.7 1.8-3.6 3.5-5.4 5-6.7 5.3-14.6 9.9-24.8 14.4-4.2 1.8-8.3 4-12.4 6.7-2.3 1.5-4.4 3.1-6.4 4.6-2 1.5-3.8 2.9-5.8 4.2-4.2 2.7-9.7 5-11.3 5.7-3.3 1.3-7.7 2.8-10.2 3.1-1 .1-2 .2-3 .2-3.1 0-5.4-.8-7.6-1.5-1.6-.5-3.1-1-5-1.3-.6-.1-1.2-.1-1.7-.1-7.2 0-10 6.8-11.8 10.9l-.3.7c-3.9 9.1-5.5 19.1-4.9 30.3.4 7.8 0 11.8-3.4 15.9-1.7 2.1-3.5 3.8-5.2 5.4-4 3.8-7.4 7-8 12.8-1.1 6.3 1.2 13.8 5.9 19.5 4.5 5.4 10.7 8.5 16.9 8.5 2.3 0 4.7-.4 7-1.2 7.1-2.6 18.4-14.8 22.3-22.7.5-1.1 1-2.1 1.6-3.2 3.2-6.4 5.9-12 11-16.4 4.3-3.7 8.1-6.1 12.7-8 4.3-1.8 9.3-2.4 14.6-3.1 7.1-.9 14.5-1.9 19.9-5.7 8.6-7.2 19.3-16.6 25-26.2 2.6-4.5 6-12.1 8-17.3 1.7-4.6.8-11.7-.2-18.6-.2-1.8-.5-3.6-.7-5.4.2-.8.3-1.7.4-2.6.3-1.9.6-3.9 1.5-6.2.2-.5.5-1.2.9-1.9 2.1-3.6 4.8-9 0-12.3z"/><path class="st0" d="M255.4 200.8c-.5-5.6-2.8-10.6-5.2-15.1-1-1.8-1.6-3.8-2.3-5.8-.8-2.5-1.6-5-3-7.1-2.1-3.2-5.6-6-9-8.6-1.3-1-2.6-2-3.7-3-14.1-12.3-25.4-27.7-36.5-42.5l-7.8-10.5c-4.1-5.4-10.1-9.6-17.9-12.5-11.2-4.2-25.2-9.4-34.4-9-2.2.1-4.3.5-6.4 1.2-4 1.4-7.2 3.7-10.3 6-1.5 1.1-3.1 2.3-4.8 3.3-1.8 1.1-3.6 2-5.4 2.6-4.7 1.6-9 1.4-12.9-.8-5.8-3.2-10.2-10.6-12.6-21.4-.3-1.3-.4-2.4-.6-3.7-.2-1.3-.3-2.6-.7-4.1-1.9-8.7-6.4-15.2-13.1-18.9-7.2-4.1-16.6-4.5-26.2-1.2-3 1-6 2.4-9 4.1C20.8 61.3 14.4 74.3 16 89.6c.8 7.8 3 19.2 8.3 29.1 7.4 13.8 19.6 16.2 30.6 16.6.5 0 1 .1 1.6 0 6.5.3 12.6.5 18 6.9 1.9 2.3 3.8 5.6 5.5 8.7l.5.8c2.8 5 6.2 10.6 10 14.4 1.8 1.8 3.8 3.3 5.8 4.7 2.4 1.8 4.9 3.6 6.9 5.9 7.5 8.8 10.2 19.6 12.7 30 1.7 7 3.5 14.3 6.8 21 .3.6.6 1.1.9 1.7 6.8 12.7 19.7 15.8 32.1 18.8 2.9.7 5.9 1.4 8.8 2.3 13.5 3.9 24.2 5 34.7 3.7 3.6-.5 7.5-1.4 11.3-2.7 3.1-1.1 6.1-2.4 8.8-3.8 14.6-7.8 38.3-24.3 36.1-46.9z"/><path class="st1" d="M230.3 189.5c-.5-4.7-2.4-8.9-4.4-12.7-.8-1.5-1.3-3.2-1.9-4.8-.6-2.1-1.4-4.2-2.5-6-1.8-2.7-4.7-5-7.5-7.3-1.1-.9-2.2-1.7-3.1-2.5-11.9-10.4-21.4-23.3-30.7-35.8-2.2-2.9-4.4-5.9-6.6-8.8-3.4-4.5-8.5-8.1-15-10.5-9.5-3.5-21.2-7.9-28.9-7.6-1.9.1-3.6.4-5.4 1-3.3 1.2-6.1 3.1-8.7 5.1-1.3.9-2.6 1.9-4 2.8-1.5.9-3.1 1.7-4.5 2.2-4 1.4-7.6 1.1-10.8-.7-4.9-2.7-8.5-9-10.6-18-.2-1.1-.4-2-.5-3.1-.1-1.1-.3-2.2-.6-3.5-1.6-7.3-5.4-12.8-11-15.9-6.1-3.4-13.9-3.8-22.1-1-2.5.9-5.1 2-7.6 3.5C33 72 27.6 83 29 95.9c.7 6.5 2.5 16.1 7 24.5 6.2 11.6 16.5 13.6 25.7 14H63c5.5.2 10.6.4 15.2 5.8 1.6 1.9 3.2 4.7 4.7 7.3l.4.7c2.4 4.2 5.2 8.9 8.4 12.1 1.5 1.5 3.2 2.7 4.9 4 2 1.5 4.1 3 5.8 5 6.3 7.4 8.6 16.5 10.7 25.3 1.5 5.9 3 12.1 5.8 17.7.2.5.5.9.7 1.4 5.8 10.7 16.6 13.3 27 15.8 2.4.6 5 1.2 7.4 1.9 11.4 3.3 20.4 4.2 29.2 3.1 3-.4 6.3-1.2 9.5-2.3 2.6-.9 5.1-2 7.4-3.2 12.1-6.6 32-20.5 30.2-39.5z"/><g><path class="st0" d="M130.6 68.8c.9 0 1.8 0 2.7-.1 11.2-1.1 18.5-7.1 26.1-13.4 1.9-1.6 3.9-3.2 5.9-4.7 3.3-2.6 5.7-5.5 7-8.9 3.1-7.8.1-17-7.7-23.8-3.9-3.4-9-6.3-13-8.5-1.1-.6-2.3-1-3.5-1.4-1.1-.3-2.2-.7-3.2-1.2-1.4-.7-2.1-1.6-2.9-2.5-.4-.5-.9-1.1-1.5-1.6-1.8-1.7-4.4-2.7-7.4-2.7-2.6 0-5.2.7-7.3 2-2.5 1.5-3.5 4-4.5 6.3-.7 1.6-1.4 3.3-2.6 4.7-1.7 2-4 3.6-6.2 5-2.1 1.4-4.3 2.9-6.1 4.8-7.2 7.9-9 17.8-4.9 27.1 5 11.1 16.9 18.9 29.1 18.9z"/><path class="st1" d="M131.1 58.8c.7 0 1.5 0 2.2-.1 9.2-.9 15.1-5.8 21.3-10.9 1.5-1.3 3.1-2.6 4.8-3.9 2.7-2.1 4.6-4.5 5.7-7.3 2.5-6.4.1-13.8-6.3-19.4-3.2-2.8-7.3-5.2-10.6-6.9-.9-.5-1.9-.8-2.8-1.1-.9-.3-1.8-.6-2.6-1-1.2-.6-1.7-1.3-2.4-2-.3-.4-.7-.9-1.2-1.3-1.5-1.4-3.7-2.2-6.1-2.2-2.1 0-4.2.6-5.9 1.6-2.1 1.3-2.9 3.2-3.7 5.1-.6 1.3-1.2 2.7-2.1 3.8-1.4 1.7-3.3 2.9-5.1 4.1-1.7 1.2-3.5 2.4-5 3.9-5.9 6.5-7.3 14.5-4 22.1 4 9.2 13.8 15.5 23.8 15.5z"/></g><g><path class="st0" d="M5.6 330.4c.6 0 1.4-.1 2.1-.2 2.4-.4 4.8-1.1 7.3-2 2.9-.9 5.9-1.9 9-2.3 1.1-.1 2.1-.2 3-.2 9.6 0 14.1 5.3 18.9 10.9 3.9 4.6 8 9.3 15 11.1 5.4-.2 5.6-5 5.9-10.5.1-2.1.2-4.4.7-6.5 1.3-6.4 5.8-14.7 12.2-22.2l.2-.2c1.3-1.5 2.4-2.9 4.2-4.2 6.3-4.7 14.6-4.7 23.3-4.7 4.3 0 8.6 0 12.8-.6 6-.9 10.3-3.1 13.2-6.8 4.8-6.1 7-14.7 5.7-21.8-.9-5.1-3.5-9.1-7.6-11.6-7.2-4.4-18.1-9.3-25.1-10.1-1.4-.2-3.7-.3-5.9-.3-1.9 0-3.7.1-5 .2-6.3.7-13.3 3-20.6 5.5-7.7 2.6-15.5 5.3-22.7 5.9-1.5.1-3.1.2-4.7.3-6.2.3-12.5.7-16.5 3.7-4.3 3.3-6.2 7.7-8.3 12.8-.6 1.4-1.2 2.9-1.9 4.4-1.4 2.4-3.2 4.9-5.2 7.5-2.9 4-6 8.1-7.6 12.4-.7 2-1.3 4.1-1.8 6.1-1 3.8-2.1 7.8-4 11.1-.2.4-.5.7-.7 1.1-.7 1.1-1.5 2.3-1.9 4v4.4c1.3 1.8 3.2 2.8 6 2.8z"/><path class="st1" d="M9.9 326.1c.6 0 1.2 0 1.8-.1 2-.3 4.1-1 6.3-1.7 2.5-.8 5.2-1.7 7.8-2 .9-.1 1.8-.2 2.6-.2 8.3 0 12.3 4.6 16.4 9.5 3.4 4 7 8 13.1 9.6 4.7-.2 4.9-4.3 5.2-9.1.1-1.9.2-3.8.6-5.7 1.1-5.6 5.1-12.8 10.6-19.3l.1-.2c1.1-1.3 2.1-2.5 3.7-3.7 5.4-4.1 12.7-4.1 20.3-4.1 3.7 0 7.5 0 11.1-.5 5.2-.7 8.9-2.7 11.5-5.9 4.1-5.3 6.1-12.7 5-19-.8-4.4-3.1-7.9-6.6-10.1-6.2-3.8-15.8-8.1-21.8-8.8-1.3-.1-3.2-.2-5.1-.2-1.7 0-3.2.1-4.4.2-5.5.6-11.5 2.6-17.9 4.8-6.7 2.3-13.5 4.6-19.7 5.1-1.3.1-2.7.2-4 .3-5.3.3-10.9.6-14.3 3.2-3.8 2.9-5.3 6.7-7.2 11.1-.5 1.2-1 2.5-1.6 3.8-1.2 2.1-2.8 4.3-4.5 6.5-2.6 3.5-5.2 7-6.6 10.7-.6 1.7-1.1 3.5-1.6 5.3-.9 3.3-1.8 6.7-3.5 9.6l-.6.9c-.6 1-1.3 2-1.6 3.4v3.8c.9 2 2.5 2.8 4.9 2.8z"/></g></svg>