<?xml version="1.0" encoding="UTF-8"?>
<svg width="548px" height="447px" viewBox="0 0 548 447" version="1.1" xmlns="http://www.w3.org/2000/svg" xmlns:xlink="http://www.w3.org/1999/xlink">
    <!-- Generator: Sketch 41.2 (35397) - http://www.bohemiancoding.com/sketch -->
    <title>Group 2</title>
    <desc>Created with Sketch.</desc>
    <defs></defs>
    <g id="Page-1" stroke="none" stroke-width="1" fill="none" fill-rule="evenodd">
        <g id="Group-2" transform="translate(-8.000000, -3.000000)">
            <path d="M490.747289,354.630567 C509.23726,359.805341 520.164652,360.487888 539.474376,367.919426 C547.740543,371.099806 555.447008,384.190194 551.951509,391.474573 C550.623537,394.243488 546.367689,395.391717 544.414011,397.898264 C522.738754,425.730707 524.273975,426.156694 476.880141,436.390065 C407.813689,451.304452 335.936847,437.910064 266.180008,438.13758 C211.577369,438.317656 156.974729,440.358521 102.38133,439.286777 C96.8727526,439.178344 91.1965281,439.070879 85.5770659,438.681681 C71.6808763,437.719338 58.11998,435.038524 48.2380692,426.383242 C24.1180754,405.252349 43.0436638,382.493023 66.5590738,372.07764 C122.154392,347.456558 213.058467,353.803765 269.187087,354.303331 C280.664941,354.405955 291.997589,356.909597 303.475443,357.027712 C368.457653,357.701546 405.590721,355.724579 466.058353,353.365192 L490.745969,354.629599 L490.747289,354.630567 Z" id="Shape" fill="#FFFFFF" transform="translate(294.927658, 398.327534) rotate(-3.000000) translate(-294.927658, -398.327534) "></path>
            <path d="M520.672774,289.526771 C531.223655,293.208866 537.459123,293.694531 548.477777,298.982419 C553.194677,301.245409 557.592195,310.559835 555.597569,315.743013 C554.839791,317.713226 552.411289,318.530245 551.296467,320.31377 C538.927975,340.117862 539.804014,340.420972 512.759802,347.702496 C473.348604,358.314783 432.333721,348.784047 392.528569,348.945935 C361.370817,349.074068 330.213064,350.526239 299.060584,349.763642 C295.91724,349.686487 292.678231,349.610021 289.471613,349.333089 C281.542069,348.648336 273.803853,346.740811 268.164965,340.582171 C254.40144,325.546548 265.200896,309.352218 278.619429,301.941184 C310.343632,284.422126 362.215972,288.938462 394.24449,289.293927 C400.794066,289.366949 407.260784,291.148408 413.81036,291.232452 C450.890978,291.711917 472.080118,290.305212 506.584595,288.626397 L520.672021,289.526082 L520.672774,289.526771 Z" id="Shape" fill="#FFFFFF" transform="translate(408.932761, 320.619217) rotate(-4.000000) translate(-408.932761, -320.619217) "></path>
            <text id="Start-2017-off-right" transform="translate(411.460206, 319.422345) rotate(-3.000000) translate(-411.460206, -319.422345) " font-family="Charter-Black, Charter" font-size="24" font-weight="700" line-spacing="25" fill="#283C46">
                <tspan x="287.007081" y="316.31297">Start 2017 off right</tspan>
                <tspan x="295.216065" y="341.31297">by hiring Damien.</tspan>
            </text>
            <text id="He’s-the-saner,-orga" transform="translate(299.792248, 399.407346) rotate(-2.000000) translate(-299.792248, -399.407346) " font-family="Charter-Roman, Charter" font-size="24" font-weight="normal" line-spacing="25" fill="#283C46">
                <tspan x="96.2796319" y="385.907346">He’s the saner, organized way to code </tspan>
                <tspan x="72.4319756" y="410.907346">projects and communicate company-wide.</tspan>
                <tspan x="535.873382" y="416.68469" font-family="Charter-Black, Charter" font-weight="700"> </tspan>
                <tspan x="182.365569" y="441.68469" font-family="Charter-Black, Charter" font-weight="700">He’s a game changer.</tspan>
            </text>
            <path d="M310.83521,10.7059188 C323.194831,14.408658 330.499247,14.8970455 343.406832,20.2145807 C348.932351,22.4902586 354.083738,31.8569072 351.747172,37.0691447 C350.859489,39.0504046 348.014667,39.872004 346.708731,41.6655291 C332.219905,61.5806547 333.246123,61.8854639 301.565714,69.2078125 C255.398243,79.8795987 207.352166,70.2954272 160.723206,70.458223 C124.22407,70.5870742 87.7249345,72.0473874 51.2319757,71.2805151 C47.5497667,71.2029273 43.7554943,71.1260323 39.9991647,70.8475475 C30.7102565,70.1589558 21.645475,68.240736 15.0399115,62.047567 C-1.08309892,46.9276445 11.5677111,30.6425195 27.2865874,23.1899343 C64.4492794,5.57265453 125.21411,10.1143118 162.733288,10.4717699 C170.405659,10.5452012 177.980968,12.3366481 185.65334,12.4211633 C229.090699,12.9033161 253.9123,11.4887243 294.331889,9.80049686 L310.834327,10.705226 L310.83521,10.7059188 Z" id="Shape" fill="#283C46" transform="translate(179.939573, 41.972688) rotate(-3.000000) translate(-179.939573, -41.972688) "></path>
            <text id="Still-running-your-b" transform="translate(184.870934, 39.886646) rotate(-3.000000) translate(-184.870934, -39.886646) " font-family="Charter-Bold, Charter" font-size="24" font-weight="bold" line-spacing="25" fill="#FFFFFF">
                <tspan x="9.25960615" y="30.9530518">Still running your business</tspan>
                <tspan x="63.3943718" y="55.9530518">without Damien?</tspan>
            </text>
            <path d="M408.194356,67.1194946 C421.018221,69.7137633 428.597,70.0559446 441.989411,73.7815959 C447.722476,75.3760155 453.067356,81.9386173 450.643025,85.5904934 C449.722,86.9786334 446.770322,87.5542747 445.415334,88.8108811 C430.382289,102.764115 431.447053,102.977675 398.576686,108.107969 C350.675104,115.584996 300.824354,108.86999 252.443948,108.98405 C214.573858,109.074328 176.703767,110.097474 138.840085,109.560177 C135.019567,109.505816 131.082777,109.451941 127.185355,109.256825 C117.547543,108.774373 108.142276,107.430401 101.288599,103.09125 C84.5599874,92.4977034 97.6859784,81.0877749 113.995276,75.8662328 C152.553848,63.52295 215.601085,66.704994 254.529532,66.9554417 C262.490088,67.0068902 270.349935,68.2620406 278.310491,68.321255 C323.379415,68.6590681 349.133347,67.6679555 391.07115,66.4851243 L408.19344,67.1190092 L408.194356,67.1194946 Z" id="Shape" fill="#283C46" transform="translate(272.382107, 89.026087) rotate(-1.000000) translate(-272.382107, -89.026087) "></path>
            <text id="Stuff-slipping?-Gett" transform="translate(271.243402, 86.102670) rotate(-2.000000) translate(-271.243402, -86.102670) " font-family="Charter-Roman, Charter" font-size="24" font-weight="normal" fill="#FFFFFF">
                <tspan x="107.098871" y="95.1026698">Stuff slipping? Getting chaotic?</tspan>
            </text>
        </g>
    </g>
</svg>