<svg width="119" height="82" viewBox="0 0 119 82" xmlns="http://www.w3.org/2000/svg" xmlns:xlink="http://www.w3.org/1999/xlink"><title>Group 11</title><defs><path d="M33 32.593C37.39 40.156 47.982 43 58.998 43c11.014 0 21.606-2.844 25.995-10.407C83.956 17.67 72.993 0 58.998 0 45.002 0 34.038 17.67 33 32.593z" id="a"/><mask id="b" x="-6" y="-6" width="63.993" height="55"><path fill="#fff" d="M27-6h63.993v55H27z"/><use xlink:href="#a"/></mask><path id="c" d="M25.997 43H0V0H51.993v43H25.997z"/></defs><g fill="none" fill-rule="evenodd"><g transform="translate(0 6)"><use fill="#B3DCFF" xlink:href="#a"/><use stroke="#3CB371" mask="url(#b)" stroke-width="12" stroke-linecap="round" stroke-linejoin="round" xlink:href="#a"/></g><g transform="translate(33 6)"><mask id="d" fill="#fff"><use xlink:href="#c"/></mask><path d="M25.998 0C12.002 0 1.038 17.67 0 32.593 4.39 40.156 14.982 43 25.998 43c11.014 0 21.606-2.844 25.995-10.407C50.956 17.67 39.993 0 25.998 0" fill="#B3DCFF" mask="url(#d)"/></g><path d="M75.2 24.55c-3.072-3.93-6.99-8.09-9.26-8.09-2.27 0-8.62 11.153-11.53 11.153-2.913 0-4.427-5.076-8.008-5.056-4.878.028-9.66 14.258-9.66 14.258s1.978 8.698 22.664 8.698c20.685 0 22.338-8.555 22.338-8.555s-2.13-6.755-6.544-12.407" fill="#5ECC62"/><path d="M54.733 32.372c-3.213 0-4.86-3.145-5.752-5.087-.802-1.75-.94-4.51-3.22-4.588.225-.088.44-.14.642-.14 3.58 0 5.095 5.056 8.007 5.056 2.91 0 9.26-11.153 11.53-11.153.427 0 .91.15 1.432.416-.387-.05-.882-.015-1.264.366-.735.728-7.398 15.13-11.375 15.13" fill="#00AD45"/><path d="M47.91 35.6c0 1.436 1.175 2.6 2.622 2.6 1.446 0 2.62-1.164 2.62-2.6 0-1.436-1.174-2.6-2.62-2.6-1.447 0-2.62 1.164-2.62 2.6M64.842 35.6c0 1.436 1.173 2.6 2.62 2.6s2.62-1.164 2.62-2.6c0-1.436-1.173-2.6-2.62-2.6s-2.62 1.164-2.62 2.6M59.06 42.193c-3.673 0-5.34-2.657-5.41-2.77-.23-.378-.11-.87.27-1.1.38-.227.874-.11 1.106.266.058.09 1.3 2.003 4.035 2.003 2.826 0 3.87-1.934 3.88-1.954.204-.393.69-.546 1.085-.343.396.203.55.686.345 1.08-.06.114-1.515 2.816-5.31 2.816M13.094 70.372c0-2.576-1.428-3.976-3.584-4.648 1.68-.7 2.8-2.016 2.8-4.032 0-3.052-2.072-5.012-6.412-5.012H.27V76h5.544c4.536 0 7.28-1.82 7.28-5.628zM8.866 62c0 1.652-1.148 2.632-3.332 2.632H3.826v-5.124h1.876c2.24 0 3.164.952 3.164 2.492zm.672 8.26c0 1.932-1.372 2.912-3.724 2.912H3.826v-5.908h1.932c2.464 0 3.78 1.036 3.78 2.996zM26.534 76v-9.268c0-3.248-1.736-4.536-5.236-4.536-2.156 0-3.808.476-5.376 1.092l.42 2.688c1.456-.644 2.94-1.092 4.508-1.092 1.484 0 2.324.56 2.324 2.016v.392c-5.46.532-8.148 1.96-8.148 5.236 0 2.352 1.54 3.752 3.836 3.752 2.016 0 3.416-.896 4.508-2.044L23.65 76h2.884zm-3.36-3.724c-.924.924-2.016 1.456-3.164 1.456-1.036 0-1.652-.588-1.652-1.568 0-1.288.924-2.436 4.816-2.912v3.024zm16.716-.252c0-2.548-1.372-3.5-4.872-4.396-2.016-.532-2.52-.924-2.52-1.652 0-.756.616-1.232 1.876-1.232 1.344 0 2.94.476 4.284 1.232l.448-2.8c-1.344-.616-2.968-.952-4.732-.952-3.136 0-4.984 1.652-4.984 3.976 0 2.464 1.372 3.416 4.648 4.256 2.156.532 2.744.924 2.744 1.876 0 .868-.784 1.4-2.24 1.4-1.68 0-3.472-.644-4.928-1.596l-.448 2.8c1.288.7 3.304 1.316 5.264 1.316 3.556 0 5.46-1.568 5.46-4.228zm14-2.94c0-3.836-1.82-6.888-5.88-6.888-3.528 0-6.16 2.66-6.16 7.056 0 4.872 2.828 7.028 6.608 7.028 2.184 0 3.948-.644 5.404-1.652l-.392-2.632c-1.484 1.036-2.912 1.68-4.648 1.68-2.072 0-3.472-1.148-3.64-3.78h8.68c0-.196.028-.532.028-.812zm-3.276-1.288h-5.376c.252-2.212 1.344-3.276 2.688-3.276 1.624 0 2.464 1.176 2.688 3.276zm16.184 7.14l-.448-2.856c-1.26.98-2.324 1.288-3.5 1.288-2.044 0-3.556-1.344-3.556-4.144 0-2.688 1.4-4.116 3.332-4.116 1.316 0 2.408.392 3.556 1.26l.476-3.024c-1.064-.672-2.408-1.148-4.228-1.148-3.584 0-6.524 2.408-6.524 7.112 0 4.424 2.66 6.944 6.412 6.944 1.708 0 3.108-.364 4.48-1.316zM80.238 76v-9.268c0-3.248-1.736-4.536-5.236-4.536-2.156 0-3.808.476-5.376 1.092l.42 2.688c1.456-.644 2.94-1.092 4.508-1.092 1.484 0 2.324.56 2.324 2.016v.392c-5.46.532-8.148 1.96-8.148 5.236 0 2.352 1.54 3.752 3.836 3.752 2.016 0 3.416-.896 4.508-2.044l.28 1.764h2.884zm-3.36-3.724c-.924.924-2.016 1.456-3.164 1.456-1.036 0-1.652-.588-1.652-1.568 0-1.288.924-2.436 4.816-2.912v3.024zM102.974 76v-9.744c0-2.52-1.26-4.06-3.808-4.06-1.82 0-3.304.98-4.508 2.184-.504-1.316-1.54-2.184-3.472-2.184-1.82 0-3.192.98-4.452 2.184l-.308-1.904H83.57V76h3.36v-9.156c.98-1.008 1.96-1.68 2.996-1.68 1.232 0 1.68.812 1.68 1.988V76h3.36v-9.156c.98-1.008 1.96-1.68 2.996-1.68 1.232 0 1.652.812 1.652 1.988V76h3.36zm15.764-7.14c0-4.536-2.268-6.664-5.096-6.664-1.876 0-3.192 1.036-4.144 2.128l-.308-1.848h-2.856v18.732l3.36-.504v-5.096c.812.308 1.848.532 3.136.532 3.108 0 5.908-2.24 5.908-7.28zm-3.388.196c0 2.968-1.316 4.396-3.052 4.396-1.148 0-1.792-.196-2.604-.588v-5.796c.896-1.148 1.848-1.904 3.052-1.904 1.512 0 2.604 1.288 2.604 3.892z" fill="#000"/></g></svg>