<?xml version="1.0" encoding="UTF-8"?>
<svg width="568px" height="496px" viewBox="0 0 568 496" version="1.1" xmlns="http://www.w3.org/2000/svg" xmlns:xlink="http://www.w3.org/1999/xlink">
    <!-- Generator: Sketch 41.2 (35397) - http://www.bohemiancoding.com/sketch -->
    <title>Group 2</title>
    <desc>Created with Sketch.</desc>
    <defs></defs>
    <g id="Page-1" stroke="none" stroke-width="1" fill="none" fill-rule="evenodd">
        <g id="Group-2" transform="translate(-3.000000, -4.000000)">
            <path d="M508.319108,394.788261 C526.995394,400.536481 538.032897,401.294665 557.537197,409.549733 C565.886659,413.082549 573.670778,427.623556 570.140057,435.715158 C568.798703,438.790912 564.499971,440.066383 562.526607,442.850694 C540.632937,473.767407 542.183628,474.2406 494.312226,485.607987 C424.549821,502.175121 351.948705,487.296426 281.488956,487.549154 C226.336109,487.749186 171.183261,490.016211 116.039747,488.8257 C110.475662,488.705251 104.742241,488.585877 99.0661534,488.153551 C85.0299377,487.084565 71.3323939,484.106675 61.3509072,474.492252 C36.9878663,451.019726 56.10416,425.738312 79.8565249,414.168742 C136.012054,386.81926 227.832132,393.869836 284.526336,394.424763 C296.119847,394.538759 307.56669,397.319844 319.160201,397.451047 C384.79721,398.199553 422.304453,396.003507 483.381391,393.382662 L508.317774,394.787185 L508.319108,394.788261 Z" id="Shape" fill="#FFFFFF" transform="translate(310.526284, 443.327534) rotate(-3.000000) translate(-310.526284, -443.327534) "></path>
            <path d="M533.672774,324.621387 C544.223655,328.64755 550.459123,329.178597 561.477777,334.960603 C566.194677,337.435055 570.592195,347.619852 568.597569,353.287363 C567.839791,355.441681 565.411289,356.335044 564.296467,358.285229 C551.927975,379.939882 552.804014,380.271315 525.759802,388.233249 C486.348604,399.837185 445.333721,389.415864 405.528569,389.592879 C374.370817,389.732985 343.213064,391.320853 312.060584,390.486996 C308.91724,390.402632 305.678231,390.31902 302.471613,390.01621 C294.542069,389.267472 286.803853,387.181701 281.164965,380.447577 C267.40144,364.006974 278.200896,346.299392 291.619429,338.195845 C323.343632,319.039748 375.215972,323.978105 407.24449,324.366786 C413.794066,324.446632 420.260784,326.394556 426.81036,326.486454 C463.890978,327.010721 485.080118,325.472569 519.584595,323.63688 L533.672021,324.620634 L533.672774,324.621387 Z" id="Shape" fill="#FFFFFF" transform="translate(421.932761, 358.619217) rotate(-4.000000) translate(-421.932761, -358.619217) "></path>
            <text id="Start-2017-off-right" transform="translate(424.460206, 358.425466) rotate(-3.000000) translate(-424.460206, -358.425466) " font-family="Charter-Black, Charter" font-size="24" font-weight="700" fill="#283C46">
                <tspan x="304.108643" y="352.425466">Start 2017 off right</tspan>
                <tspan x="312.317628" y="382.425466">by hiring Damien.</tspan>
            </text>
            <text id="He’s-the-saner,-orga" transform="translate(321.792248, 442.907346) rotate(-2.000000) translate(-321.792248, -442.907346) " font-family="Charter-Roman, Charter" font-size="24" font-weight="normal" fill="#283C46">
                <tspan x="124.858655" y="421.907346">He’s the saner, organized way to code </tspan>
                <tspan x="101.010998" y="451.907346">projects and communicate company-wide.</tspan>
                <tspan x="542.573498" y="451.907346" font-family="Charter-Black, Charter" font-weight="700"> </tspan>
                <tspan x="189.065686" y="481.907346" font-family="Charter-Black, Charter" font-weight="700">He’s a game changer.</tspan>
            </text>
            <path d="M347.177164,11.81134 C361.221598,15.9154912 369.521721,16.4568245 384.188814,22.350831 C390.46755,24.8732139 396.321152,35.255296 393.666075,41.0325895 C392.657386,43.2286367 389.42477,44.1393052 387.940815,46.1272655 C371.476932,68.2013795 372.64304,68.5392329 336.644089,76.6553935 C284.18326,88.4841024 229.587742,77.8609159 176.602516,78.0413603 C135.12797,78.1841802 93.653424,79.8028052 52.1858969,78.9527967 C48.0017445,78.8667977 43.6902527,78.7815665 39.4218758,78.4728913 C28.8667422,77.7096497 18.5662875,75.5834767 11.0602811,68.7189095 C-7.26055112,51.9598441 7.11476471,33.9092572 24.9763729,25.6487411 C67.2049285,6.12158121 136.252968,11.1555972 178.886604,11.5518071 C187.604841,11.6331991 196.212785,13.6188558 204.931022,13.7125333 C254.289582,14.246956 282.49476,12.679009 328.42418,10.8077617 L347.176161,11.8105721 L347.177164,11.81134 Z" id="Shape" fill="#283C46" transform="translate(198.438378, 46.467723) rotate(-3.000000) translate(-198.438378, -46.467723) "></path>
            <text id="Still-running-your-b" transform="translate(203.870934, 48.891165) rotate(-3.000000) translate(-203.870934, -48.891165) " font-family="Charter-Black, Charter" font-size="26" font-weight="700" fill="#FFFFFF">
                <tspan x="20.8489616" y="42.8911654">Still running your business</tspan>
                <tspan x="88.4895866" y="73.8911654">without Damien?</tspan>
            </text>
            <path d="M422.226139,76.1194946 C436.233139,78.7137633 444.511139,79.0559446 459.139139,82.7815959 C465.401139,84.3760155 471.239139,90.9386173 468.591139,94.5904934 C467.585139,95.9786334 464.361139,96.5542747 462.881139,97.8108811 C446.461139,111.764115 447.624139,111.977675 411.721139,117.107969 C359.400139,124.584996 304.950139,117.86999 252.106139,117.98405 C210.742139,118.074328 169.378139,119.097474 128.021139,118.560177 C123.848139,118.505816 119.548139,118.451941 115.291139,118.256825 C104.764139,117.774373 94.4911388,116.430401 87.0051388,112.09125 C68.7331388,101.497703 83.0701388,90.0877749 100.884139,84.8662328 C143.000139,72.52295 211.864139,75.704994 254.384139,75.9554417 C263.079139,76.0068902 271.664139,77.2620406 280.359139,77.321255 C329.586139,77.6590681 357.716139,76.6679555 403.523139,75.4851243 L422.225139,76.1190092 L422.226139,76.1194946 Z" id="Shape" fill="#283C46" transform="translate(273.883800, 98.026087) rotate(-1.000000) translate(-273.883800, -98.026087) "></path>
            <text id="Stuff-slipping?-Gett" transform="translate(275.243402, 94.602670) rotate(-2.000000) translate(-275.243402, -94.602670) " font-family="Charter-Roman, Charter" font-size="26" font-weight="normal" fill="#FFFFFF">
                <tspan x="97.4201599" y="104.10267">Stuff slipping? Getting chaotic?</tspan>
            </text>
        </g>
    </g>
</svg>