<?xml version="1.0" encoding="UTF-8"?>
<svg width="550px" height="463px" viewBox="0 0 550 463" version="1.1" xmlns="http://www.w3.org/2000/svg" xmlns:xlink="http://www.w3.org/1999/xlink">
    <!-- Generator: Sketch 41.2 (35397) - http://www.bohemiancoding.com/sketch -->
    <title>Group 2</title>
    <desc>Created with Sketch.</desc>
    <defs></defs>
    <g id="Page-1" stroke="none" stroke-width="1" fill="none" fill-rule="evenodd">
        <g id="Group-2" transform="translate(-8.000000, -3.000000)">
            <path d="M495.319108,360.788261 C513.995394,366.536481 525.032897,367.294665 544.537197,375.549733 C552.886659,379.082549 560.670778,393.623556 557.140057,401.715158 C555.798703,404.790912 551.499971,406.066383 549.526607,408.850694 C527.632937,439.767407 529.183628,440.2406 481.312226,451.607987 C411.549821,468.175121 338.948705,453.296426 268.488956,453.549154 C213.336109,453.749186 158.183261,456.016211 103.039747,454.8257 C97.475662,454.705251 91.7422406,454.585877 86.0661534,454.153551 C72.0299377,453.084565 58.3323939,450.106675 48.3509072,440.492252 C23.9878663,417.019726 43.10416,391.738312 66.8565249,380.168742 C123.012054,352.81926 214.832132,359.869836 271.526336,360.424763 C283.119847,360.538759 294.56669,363.319844 306.160201,363.451047 C371.79721,364.199553 409.304453,362.003507 470.381391,359.382662 L495.317774,360.787185 L495.319108,360.788261 Z" id="Shape" fill="#FFFFFF" transform="translate(297.526284, 409.327534) rotate(-3.000000) translate(-297.526284, -409.327534) "></path>
            <path d="M520.672774,290.621387 C531.223655,294.64755 537.459123,295.178597 548.477777,300.960603 C553.194677,303.435055 557.592195,313.619852 555.597569,319.287363 C554.839791,321.441681 552.411289,322.335044 551.296467,324.285229 C538.927975,345.939882 539.804014,346.271315 512.759802,354.233249 C473.348604,365.837185 432.333721,355.415864 392.528569,355.592879 C361.370817,355.732985 330.213064,357.320853 299.060584,356.486996 C295.91724,356.402632 292.678231,356.31902 289.471613,356.01621 C281.542069,355.267472 273.803853,353.181701 268.164965,346.447577 C254.40144,330.006974 265.200896,312.299392 278.619429,304.195845 C310.343632,285.039748 362.215972,289.978105 394.24449,290.366786 C400.794066,290.446632 407.260784,292.394556 413.81036,292.486454 C450.890978,293.010721 472.080118,291.472569 506.584595,289.63688 L520.672021,290.620634 L520.672774,290.621387 Z" id="Shape" fill="#FFFFFF" transform="translate(408.932761, 324.619217) rotate(-4.000000) translate(-408.932761, -324.619217) "></path>
            <text id="Start-2017-off-right" transform="translate(411.460206, 324.425466) rotate(-3.000000) translate(-411.460206, -324.425466) " font-family="Charter-Black, Charter" font-size="24" font-weight="700" fill="#283C46">
                <tspan x="291.108643" y="318.425466">Start 2017 off right</tspan>
                <tspan x="299.317628" y="348.425466">by hiring Damien.</tspan>
            </text>
            <text id="He’s-the-saner,-orga" transform="translate(308.792248, 408.907346) rotate(-2.000000) translate(-308.792248, -408.907346) " font-family="Charter-Roman, Charter" font-size="24" font-weight="normal" fill="#283C46">
                <tspan x="111.858655" y="387.907346">He’s the saner, organized way to code </tspan>
                <tspan x="88.0109983" y="417.907346">projects and communicate company-wide.</tspan>
                <tspan x="529.573498" y="417.907346" font-family="Charter-Black, Charter" font-weight="700"> </tspan>
                <tspan x="176.065686" y="447.907346" font-family="Charter-Black, Charter" font-weight="700">He’s a game changer.</tspan>
            </text>
            <path d="M310.83521,10.81134 C323.194831,14.9154912 330.499247,15.4568245 343.406832,21.350831 C348.932351,23.8732139 354.083738,34.255296 351.747172,40.0325895 C350.859489,42.2286367 348.014667,43.1393052 346.708731,45.1272655 C332.219905,67.2013795 333.246123,67.5392329 301.565714,75.6553935 C255.398243,87.4841024 207.352166,76.8609159 160.723206,77.0413603 C124.22407,77.1841802 87.7249345,78.8028052 51.2319757,77.9527967 C47.5497667,77.8667977 43.7554943,77.7815665 39.9991647,77.4728913 C30.7102565,76.7096497 21.645475,74.5834767 15.0399115,67.7189095 C-1.08309892,50.9598441 11.5677111,32.9092572 27.2865874,24.6487411 C64.4492794,5.12158121 125.21411,10.1555972 162.733288,10.5518071 C170.405659,10.6331991 177.980968,12.6188558 185.65334,12.7125333 C229.090699,13.246956 253.9123,11.679009 294.331889,9.80776173 L310.834327,10.8105721 L310.83521,10.81134 Z" id="Shape" fill="#283C46" transform="translate(179.939573, 45.467723) rotate(-3.000000) translate(-179.939573, -45.467723) "></path>
            <text id="Still-running-your-b" transform="translate(184.870934, 43.891165) rotate(-3.000000) translate(-184.870934, -43.891165) " font-family="Charter-Bold, Charter" font-size="24" font-weight="bold" fill="#FFFFFF">
                <tspan x="35.2400749" y="37.8911654">Still running your business</tspan>
                <tspan x="89.3748405" y="67.8911654">without Damien?</tspan>
            </text>
            <path d="M408.194356,73.1194946 C421.018221,75.7137633 428.597,76.0559446 441.989411,79.7815959 C447.722476,81.3760155 453.067356,87.9386173 450.643025,91.5904934 C449.722,92.9786334 446.770322,93.5542747 445.415334,94.8108811 C430.382289,108.764115 431.447053,108.977675 398.576686,114.107969 C350.675104,121.584996 300.824354,114.86999 252.443948,114.98405 C214.573858,115.074328 176.703767,116.097474 138.840085,115.560177 C135.019567,115.505816 131.082777,115.451941 127.185355,115.256825 C117.547543,114.774373 108.142276,113.430401 101.288599,109.09125 C84.5599874,98.4977034 97.6859784,87.0877749 113.995276,81.8662328 C152.553848,69.52295 215.601085,72.704994 254.529532,72.9554417 C262.490088,73.0068902 270.349935,74.2620406 278.310491,74.321255 C323.379415,74.6590681 349.133347,73.6679555 391.07115,72.4851243 L408.19344,73.1190092 L408.194356,73.1194946 Z" id="Shape" fill="#283C46" transform="translate(272.382107, 95.026087) rotate(-1.000000) translate(-272.382107, -95.026087) "></path>
            <text id="Stuff-slipping?-Gett" transform="translate(271.243402, 92.102670) rotate(-2.000000) translate(-271.243402, -92.102670) " font-family="Charter-Roman, Charter" font-size="24" font-weight="normal" fill="#FFFFFF">
                <tspan x="107.098871" y="101.10267">Stuff slipping? Getting chaotic?</tspan>
            </text>
        </g>
    </g>
</svg>