<?xml version="1.0" encoding="UTF-8"?>
<svg width="548px" height="453px" viewBox="0 0 548 453" version="1.1" xmlns="http://www.w3.org/2000/svg" xmlns:xlink="http://www.w3.org/1999/xlink">
    <!-- Generator: Sketch 41.2 (35397) - http://www.bohemiancoding.com/sketch -->
    <title>Group 2</title>
    <desc>Created with Sketch.</desc>
    <defs></defs>
    <g id="Page-1" stroke="none" stroke-width="1" fill="none" fill-rule="evenodd">
        <g id="Group-2" transform="translate(-2.000000, -3.000000)">
            <g id="Page-1">
                <g id="Group-2">
                    <path d="M484.747289,354.725183 C503.23726,360.244025 514.164652,360.971954 533.474376,368.89761 C541.740543,372.289452 549.447008,386.250211 545.951509,394.018924 C544.623537,396.971942 540.367689,398.196516 538.414011,400.869722 C516.738754,430.552726 518.273975,431.007037 470.880141,441.920818 C401.813689,457.826853 329.936847,443.541881 260.180008,443.784525 C205.577369,443.976574 150.974729,446.153135 96.38133,445.010131 C90.8727526,444.894488 85.1965281,444.779878 79.5770659,444.364802 C65.6808763,443.338474 52.11998,440.479414 42.2380692,431.248648 C18.1180754,408.712775 37.0436638,384.440196 60.5590738,373.332301 C116.154392,347.074179 207.058467,353.843408 263.187087,354.37619 C274.664941,354.485637 285.997589,357.155745 297.475443,357.281713 C362.457653,358.00035 399.590721,355.891936 460.058353,353.375674 L484.745969,354.724151 L484.747289,354.725183 Z" id="Shape" fill="#FFFFFF" transform="translate(288.927658, 401.327534) rotate(-3.000000) translate(-288.927658, -401.327534) "></path>
                    <path d="M514.672774,289.526771 C525.223655,293.208866 531.459123,293.694531 542.477777,298.982419 C547.194677,301.245409 551.592195,310.559835 549.597569,315.743013 C548.839791,317.713226 546.411289,318.530245 545.296467,320.31377 C532.927975,340.117862 533.804014,340.420972 506.759802,347.702496 C467.348604,358.314783 426.333721,348.784047 386.528569,348.945935 C355.370817,349.074068 324.213064,350.526239 293.060584,349.763642 C289.91724,349.686487 286.678231,349.610021 283.471613,349.333089 C275.542069,348.648336 267.803853,346.740811 262.164965,340.582171 C248.40144,325.546548 259.200896,309.352218 272.619429,301.941184 C304.343632,284.422126 356.215972,288.938462 388.24449,289.293927 C394.794066,289.366949 401.260784,291.148408 407.81036,291.232452 C444.890978,291.711917 466.080118,290.305212 500.584595,288.626397 L514.672021,289.526082 L514.672774,289.526771 Z" id="Shape" fill="#FFFFFF" transform="translate(402.932761, 320.619217) rotate(-4.000000) translate(-402.932761, -320.619217) "></path>
                    <g id="Start-2017-off-right" transform="translate(402.034974, 320.180302) rotate(-3.000000) translate(-402.034974, -320.180302) translate(281.034974, 292.180302)" font-size="24" font-family="Charter-Black, Charter" fill="#283C46" font-weight="700">
                        <text>
                            <tspan x="0.007081" y="24.31297">Start 2017 off right</tspan>
                        </text>
                        <text id="by-hiring-Damien.">
                            <tspan x="8.216065" y="49.31297">by hiring Damien.</tspan>
                        </text>
                    </g>
                    <g id="He’s-the-saner,-orga" transform="translate(580.231841, 601.626589) rotate(-2.000000) translate(-580.231841, -601.626589) translate(75.231841, 349.126589)">
                        <text id="He’s-the-saner,-organized-way-to-code" fill="#283C46" font-family="Charter-Roman, Charter" font-size="24" font-weight="normal">
                            <tspan x="24.3482125" y="24.9783633">He’s the saner, organized way to code</tspan>
                        </text>
                        <text id="projects-and-communicate-company-wide." fill="#283C46" font-family="Charter-Roman, Charter" font-size="24" font-weight="normal">
                            <tspan x="0.500556247" y="49.9783633">projects and communicate company-wide.</tspan>
                        </text>
                        <g id="Group" transform="translate(461.873382, 57.684690)"></g>
                        <text id="He’s-a-game-changer." fill="#283C46" font-family="Charter-Black, Charter" font-size="24" font-weight="700">
                            <tspan x="108.540066" y="77.6877359">He’s a game changer.</tspan>
                        </text>
                    </g>
                    <path d="M304.83521,10.7059188 C317.194831,14.408658 324.499247,14.8970455 337.406832,20.2145807 C342.932351,22.4902586 348.083738,31.8569072 345.747172,37.0691447 C344.859489,39.0504046 342.014667,39.872004 340.708731,41.6655291 C326.219905,61.5806547 327.246123,61.8854639 295.565714,69.2078125 C249.398243,79.8795987 201.352166,70.2954272 154.723206,70.458223 C118.22407,70.5870742 81.7249345,72.0473874 45.2319757,71.2805151 C41.5497667,71.2029273 37.7554943,71.1260323 33.9991647,70.8475475 C24.7102565,70.1589558 15.645475,68.240736 9.0399115,62.047567 C-7.08309892,46.9276445 5.5677111,30.6425195 21.2865874,23.1899343 C58.4492794,5.57265455 119.21411,10.1143118 156.733288,10.4717699 C164.405659,10.5452012 171.980968,12.3366481 179.65334,12.4211633 C223.090699,12.9033161 247.9123,11.4887243 288.331889,9.80049688 L304.834327,10.705226 L304.83521,10.7059188 Z" id="Shape" fill="#283C46" transform="translate(173.939573, 41.972688) rotate(-3.000000) translate(-173.939573, -41.972688) "></path>
                    <g id="Still-running-your-b" transform="translate(179.505070, 39.966922) rotate(-3.000000) translate(-179.505070, -39.966922) translate(29.005070, 11.966922)" font-size="24" font-family="Charter-Bold, Charter" fill="#FFFFFF" font-weight="bold">
                        <text id="Still-running-your-business">
                            <tspan x="0.0146302286" y="24.3083048">Still running your business</tspan>
                        </text>
                        <text id="without-Damien?">
                            <tspan x="54.1493959" y="49.3083048">without Damien?</tspan>
                        </text>
                    </g>
                    <path d="M402.194356,67.1194946 C415.018221,69.7137633 422.597,70.0559446 435.989411,73.7815959 C441.722476,75.3760155 447.067356,81.9386173 444.643025,85.5904934 C443.722,86.9786334 440.770322,87.5542747 439.415334,88.8108811 C424.382289,102.764115 425.447053,102.977675 392.576686,108.107969 C344.675104,115.584996 294.824354,108.86999 246.443948,108.98405 C208.573858,109.074328 170.703767,110.097474 132.840085,109.560177 C129.019567,109.505816 125.082777,109.451941 121.185355,109.256825 C111.547543,108.774373 102.142276,107.430401 95.288599,103.09125 C78.5599874,92.4977034 91.6859784,81.0877749 107.995276,75.8662328 C146.553848,63.52295 209.601085,66.704994 248.529532,66.9554417 C256.490088,67.0068902 264.349935,68.2620406 272.310491,68.321255 C317.379415,68.6590681 343.133347,67.6679555 385.07115,66.4851243 L402.19344,67.1190092 L402.194356,67.1194946 Z" id="Shape" fill="#283C46" transform="translate(266.382107, 89.026087) rotate(-1.000000) translate(-266.382107, -89.026087) "></path>
                    <g id="Stuff-slipping?-Gett" transform="translate(266.013406, 86.473353) rotate(-2.000000) translate(-266.013406, -86.473353) translate(101.013406, 70.973353)" font-size="24" font-family="Charter-Roman, Charter" fill="#FFFFFF" font-weight="normal">
                        <text id="Stuff-slipping?-Getting-chaotic?">
                            <tspan x="0.098871" y="24.1026698">Stuff slipping? Getting chaotic?</tspan>
                        </text>
                    </g>
                </g>
            </g>
        </g>
    </g>
</svg>